<svg width="17" height="24" viewBox="0 0 17 24" fill="none" xmlns="http://www.w3.org/2000/svg">
<path d="M4.83721 1.95345C5.9186 1.35313 7.17442 1 8.5 1C12.6512 1 16 4.39005 16 8.5923C16 12.7945 8.5 23 8.5 23C8.5 23 1 12.7945 1 8.5923C1 7.42697 1.24419 6.33226 1.73256 5.3435" stroke="#FCFCFC" stroke-width="2" stroke-miterlimit="10" stroke-linecap="round" stroke-linejoin="round"/>
<path d="M8.49977 11.9823C10.3108 11.9823 11.7788 10.4962 11.7788 8.66293C11.7788 6.82966 10.3108 5.34351 8.49977 5.34351C6.68879 5.34351 5.2207 6.82966 5.2207 8.66293C5.2207 10.4962 6.68879 11.9823 8.49977 11.9823Z" stroke="#FCFCFC" stroke-width="2" stroke-miterlimit="10" stroke-linecap="round"/>
</svg>
