<svg width="17" height="24" viewBox="0 0 17 24" fill="none" xmlns="http://www.w3.org/2000/svg">
<path d="M4.83721 1.95345C5.9186 1.35313 7.17442 1 8.5 1C12.6512 1 16 4.39005 16 8.5923C16 12.7945 8.5 23 8.5 23C8.5 23 1 12.7945 1 8.5923C1 7.42697 1.24419 6.33226 1.73256 5.3435" stroke="#E9454F" stroke-width="2" stroke-miterlimit="10" stroke-linecap="round" stroke-linejoin="round"/>
<path d="M8.50173 11.9826C10.3127 11.9826 11.7808 10.4964 11.7808 8.66317C11.7808 6.82991 10.3127 5.34375 8.50173 5.34375C6.69075 5.34375 5.22266 6.82991 5.22266 8.66317C5.22266 10.4964 6.69075 11.9826 8.50173 11.9826Z" stroke="#E9454F" stroke-width="2" stroke-miterlimit="10" stroke-linecap="round"/>
</svg>
