<svg width="21" height="21" viewBox="0 0 21 21" fill="none" xmlns="http://www.w3.org/2000/svg">
<path d="M1 6.15968C1 6.42367 1 6.68765 1.03776 6.95164C1.1888 8.34698 1.45311 9.62919 2.54812 10.6851C2.58588 10.7228 4.39832 12.5707 5.56886 13.7398C5.60661 13.8152 5.68213 13.8907 5.71989 13.9284C5.71989 13.9284 10.251 18.4161 10.3265 18.4538C11.4215 19.5475 12.6676 19.8114 14.0647 19.9623C14.329 20 14.5933 20 14.8576 20C16.2169 20 17.5007 19.6229 18.5958 18.9818C19.804 18.303 20.5215 17.1339 19.5397 16.1534C19.0489 15.6631 17.7273 14.3432 17.0854 13.7021C16.4812 13.0987 15.4617 13.1364 14.8954 13.7775C14.48 14.2301 14.1402 14.6072 14.1402 14.6072C13.4228 15.3237 12.2145 15.3237 11.497 14.6072L9.19373 12.3067C9.15597 12.2313 9.11821 12.1936 9.0427 12.1559L6.32404 9.44063C5.60661 8.7241 5.60661 7.51732 6.32404 6.80079C6.32404 6.80079 6.70163 6.46138 7.15474 6.04655C7.79664 5.48087 7.8344 4.46264 7.23026 3.85925C6.58835 3.21814 5.30454 1.93593 4.77591 1.40797C3.83194 0.502878 2.69916 1.21941 2.0195 2.42619" stroke="#E9454F" stroke-width="2" stroke-miterlimit="10" stroke-linecap="round" stroke-linejoin="round"/>
</svg>
