<svg width="21" height="20" viewBox="0 0 21 20" fill="none" xmlns="http://www.w3.org/2000/svg">
<path d="M9.02658 13.7436C6.25735 13.7436 4.10352 11.4871 4.10352 8.82048C4.10352 6.15381 6.35991 3.8974 9.02658 3.8974C11.7958 3.8974 13.9497 6.15381 13.9497 8.82048C13.9497 11.4871 11.6932 13.7436 9.02658 13.7436ZM9.02658 5.74355C7.28299 5.74355 5.94966 7.17945 5.94966 8.82048C5.94966 10.5641 7.38555 11.8974 9.02658 11.8974C10.7702 11.8974 12.1035 10.4615 12.1035 8.82048C12.1035 7.07689 10.6676 5.74355 9.02658 5.74355Z" fill="#FCFCFC"/>
<path d="M14.6661 16.2051C14.4609 16.2051 14.1532 16.1026 14.0507 15.8974L10.7686 12.6154C10.3584 12.2051 10.3584 11.6923 10.7686 11.2821C11.1789 10.8718 11.6917 10.8718 12.102 11.2821L15.384 14.5641C15.7943 14.9744 15.7943 15.4872 15.384 15.8974C15.0763 16.2051 14.8712 16.2051 14.6661 16.2051Z" fill="#FCFCFC"/>
<path d="M9.9487 20C4.41024 20 0 15.4872 0 10.0513C0 8.20511 0.51282 6.35896 1.53846 4.71793C1.84615 4.30768 2.35896 4.20511 2.76921 4.41024C3.17947 4.71793 3.28205 5.23076 3.07692 5.64101C2.25641 6.97435 1.84614 8.41024 1.84614 9.9487C1.84614 14.4615 5.53844 18.0513 9.9487 18.0513C11.3846 18.0513 12.8205 17.641 14.0513 16.9231C14.4615 16.7179 15.0769 16.8205 15.282 17.2308C15.5897 17.641 15.3846 18.2564 14.9744 18.4615C13.4359 19.4872 11.6923 20 9.9487 20Z" fill="#FCFCFC"/>
<path d="M17.8462 15.3846C17.6411 15.3846 17.5386 15.3846 17.436 15.2821C17.0257 15.0769 16.8206 14.4615 17.1283 14.0513C17.8462 12.8205 18.2565 11.3846 18.2565 9.94872C18.2565 5.4359 14.5642 1.84615 10.1539 1.84615C8.8206 1.84615 7.58982 2.15385 6.46161 2.66667C6.05136 2.87179 5.43599 2.66667 5.23086 2.25641C5.02574 1.84615 5.23086 1.23077 5.64111 1.02564C7.07701 0.307693 8.5129 0 10.1539 0C15.6924 0 20.1027 4.51282 20.1027 9.94872C20.1027 11.6923 19.6924 13.4359 18.7693 14.9744C18.4616 15.2821 18.1539 15.3846 17.8462 15.3846Z" fill="#FCFCFC"/>
</svg>
