<svg width="21" height="20" viewBox="0 0 21 20" fill="none" xmlns="http://www.w3.org/2000/svg">
<path d="M9.02463 13.7436C6.2554 13.7436 4.10156 11.4872 4.10156 8.82054C4.10156 6.15387 6.35796 3.89746 9.02463 3.89746C11.7939 3.89746 13.9477 6.15387 13.9477 8.82054C13.9477 11.4872 11.6913 13.7436 9.02463 13.7436ZM9.02463 5.74361C7.28104 5.74361 5.9477 7.17951 5.9477 8.82054C5.9477 10.5641 7.3836 11.8975 9.02463 11.8975C10.7682 11.8975 12.1015 10.4616 12.1015 8.82054C12.1015 7.07695 10.6657 5.74361 9.02463 5.74361Z" fill="#E9454F"/>
<path d="M14.6661 16.2054C14.4609 16.2054 14.1532 16.1028 14.0507 15.8977L10.7686 12.6156C10.3584 12.2054 10.3584 11.6926 10.7686 11.2823C11.1789 10.872 11.6917 10.872 12.102 11.2823L15.384 14.5644C15.7943 14.9746 15.7943 15.4874 15.384 15.8977C15.0763 16.2054 14.8712 16.2054 14.6661 16.2054Z" fill="#E9454F"/>
<path d="M9.9487 19.9999C4.41024 19.9999 0 15.4871 0 10.0512C0 8.20505 0.51282 6.3589 1.53846 4.71787C1.84615 4.30762 2.35896 4.20505 2.76921 4.41018C3.17947 4.71787 3.28205 5.23069 3.07692 5.64095C2.25641 6.97428 1.84614 8.41018 1.84614 9.94864C1.84614 14.4615 5.53844 18.0512 9.9487 18.0512C11.3846 18.0512 12.8205 17.641 14.0513 16.923C14.4615 16.7179 15.0769 16.8204 15.282 17.2307C15.5897 17.641 15.3846 18.2563 14.9744 18.4615C13.4359 19.4871 11.6923 19.9999 9.9487 19.9999Z" fill="#E9454F"/>
<path d="M17.8443 15.3846C17.6392 15.3846 17.5366 15.3846 17.434 15.2821C17.0238 15.0769 16.8186 14.4615 17.1263 14.0513C17.8443 12.8205 18.2545 11.3846 18.2545 9.94872C18.2545 5.4359 14.5622 1.84615 10.152 1.84615C8.81864 1.84615 7.58787 2.15385 6.45966 2.66667C6.04941 2.87179 5.43404 2.66667 5.22891 2.25641C5.02378 1.84615 5.22891 1.23077 5.63916 1.02564C7.07506 0.307693 8.51095 0 10.152 0C15.6904 0 20.1007 4.51282 20.1007 9.94872C20.1007 11.6923 19.6904 13.4359 18.7674 14.9744C18.4597 15.2821 18.152 15.3846 17.8443 15.3846Z" fill="#E9454F"/>
</svg>
