<svg width="14" height="9" viewBox="0 0 14 9" fill="none" xmlns="http://www.w3.org/2000/svg">
<path d="M12.7926 1.47579C12.8861 1.19541 12.7926 0.915039 12.3253 0.915039H10.9234C10.5496 0.915039 10.3627 1.10196 10.2692 1.28887C10.2692 1.28887 9.52158 3.06457 8.49354 4.18607C8.11971 4.46644 8.02625 4.65336 7.83933 4.65336C7.74588 4.65336 7.65242 4.5599 7.65242 4.27953V1.47579C7.65242 1.10195 7.55896 0.915039 7.27859 0.915039H5.03559C4.84868 0.915039 4.66176 1.10195 4.66176 1.19541C4.66176 1.56924 5.12905 1.56924 5.22251 2.59728V4.65336C5.22251 5.12065 5.12905 5.2141 4.94214 5.2141C4.47485 5.2141 3.25989 3.4384 2.60569 1.47579C2.51223 1.10195 2.41877 0.915039 2.04494 0.915039H0.643071C0.269239 0.915039 0.175781 1.10196 0.175781 1.28887C0.175781 1.6627 0.643071 3.53186 2.41877 5.96177C3.63373 7.64401 5.22251 8.48513 6.71784 8.48513C7.65242 8.48513 7.74588 8.29822 7.74588 7.92438V6.70943C7.74588 6.3356 7.83933 6.24214 8.11971 6.24214C8.30662 6.24214 8.68045 6.3356 9.52158 7.17672C10.4562 8.1113 10.6431 8.57859 11.2038 8.57859H12.6057C12.9795 8.57859 13.1664 8.39167 13.073 8.01784C12.9795 7.64401 12.5122 7.08326 11.858 6.3356C11.4842 5.96177 11.0169 5.49448 10.9234 5.30756C10.7365 5.02719 10.7365 4.93373 10.9234 4.65336C10.9234 4.65336 12.6057 2.31691 12.7926 1.47579Z" fill="white"/>
</svg>
