<svg width="22" height="22" viewBox="0 0 22 22" fill="none" xmlns="http://www.w3.org/2000/svg">
<path d="M10.8 21.7004C4.9 21.7004 0 16.8004 0 10.8004C0 8.80041 0.6 6.80041 1.7 5.00041C1.9 4.60041 2.6 4.50041 3 4.80041C3.5 5.10041 3.6 5.70041 3.3 6.20041C2.5 7.50041 2 9.20041 2 10.8004C2 15.7004 6 19.6004 10.8 19.6004C12.4 19.6004 13.9 19.2004 15.3 18.4004C15.8 18.1004 16.4 18.3004 16.7 18.8004C17 19.3004 16.8 19.9004 16.3 20.2004C14.6 21.2004 12.8 21.7004 10.8 21.7004Z" fill="black"/>
<path d="M19.3985 16.7C19.1985 16.7 19.0985 16.7 18.8985 16.6C18.3985 16.3 18.2985 15.7 18.4985 15.2C19.2985 13.9 19.6985 12.3 19.6985 10.8C19.6985 5.9 15.6985 2 10.8985 2C9.49852 2 8.19852 2.3 6.89852 2.9C6.39852 3.2 5.79852 3 5.49852 2.5C5.29852 2 5.49852 1.4 5.99852 1.2C7.49852 0.4 9.09852 0 10.7985 0C16.7985 0 21.5985 4.9 21.5985 10.8C21.5985 12.7 21.0985 14.6 20.1985 16.2C19.9985 16.6 19.6985 16.7 19.3985 16.7Z" fill="black"/>
<path d="M16.6016 9.89961H11.8016V5.09961C11.8016 4.49961 11.4016 4.09961 10.8016 4.09961C10.2016 4.09961 9.80156 4.49961 9.80156 5.09961V9.89961H5.10156C4.50156 9.89961 4.10156 10.2996 4.10156 10.8996C4.10156 11.4996 4.50156 11.8996 5.10156 11.8996H9.90156V16.6996C9.90156 17.2996 10.3016 17.6996 10.9016 17.6996C11.5016 17.6996 11.9016 17.2996 11.9016 16.6996V11.8996H16.7016C17.3016 11.8996 17.7016 11.4996 17.7016 10.8996C17.7016 10.2996 17.2016 9.89961 16.6016 9.89961Z" fill="black"/>
</svg>
