<svg width="21" height="20" viewBox="0 0 21 20" fill="none" xmlns="http://www.w3.org/2000/svg">
<path d="M10.7305 0C5.21645 0 0.730469 4.48598 0.730469 10C0.730469 15.514 5.21645 20 10.7305 20C16.2445 20 20.7305 15.514 20.7305 10C20.637 4.48598 16.2445 0 10.7305 0ZM15.123 7.66355C15.123 7.75701 15.123 7.85047 15.123 7.94393C15.123 10.9346 12.7865 14.486 8.58094 14.486C7.27253 14.486 6.05757 14.1121 5.02953 13.4579C5.21645 13.4579 5.40336 13.4579 5.59028 13.4579C6.71177 13.4579 7.64635 13.0841 8.39402 12.4299C7.36598 12.4299 6.52486 11.7757 6.24449 10.8411C6.33795 10.8411 6.52486 10.8411 6.71178 10.8411C6.89869 10.8411 7.08561 10.8411 7.27252 10.7477C6.24449 10.5607 5.40337 9.62617 5.40337 8.50467C5.68374 8.69159 6.05757 8.78505 6.4314 8.78505C5.7772 8.41121 5.40337 7.66355 5.40337 6.91589C5.40337 6.54206 5.49683 6.07477 5.68374 5.79439C6.80524 7.19626 8.48748 8.13084 10.4501 8.2243C10.4501 8.03738 10.3566 7.85047 10.3566 7.66355C10.3566 6.35514 11.3847 5.3271 12.6931 5.3271C13.3473 5.3271 13.908 5.60748 14.3753 6.07477C14.9361 5.98131 15.4034 5.79439 15.8707 5.51402C15.6837 6.07477 15.3099 6.54206 14.8426 6.82243C15.3099 6.72897 15.7772 6.63551 16.151 6.4486C15.9641 6.91589 15.5903 7.38318 15.123 7.66355Z" fill="#E9454F"/>
</svg>
